<svg xmlns="http://www.w3.org/2000/svg" viewBox="0 0 21 21" fill="none"><path d="M10.5 0C4.70156 0 0 4.70156 0 10.5C0 16.2984 4.70156 21 10.5 21C16.2984 21 21 16.2984 21 10.5C21 4.70156 16.2984 0 10.5 0ZM14.3766 14.4891L12.8297 14.482L10.5 11.7047L8.17266 14.4797L6.62344 14.4867C6.52031 14.4867 6.43594 14.4047 6.43594 14.2992C6.43594 14.2547 6.45234 14.2125 6.48047 14.1773L9.52969 10.5445L6.48047 6.91406C6.45215 6.87971 6.43643 6.8367 6.43594 6.79219C6.43594 6.68906 6.52031 6.60469 6.62344 6.60469L8.17266 6.61172L10.5 9.38906L12.8273 6.61406L14.3742 6.60703C14.4773 6.60703 14.5617 6.68906 14.5617 6.79453C14.5617 6.83906 14.5453 6.88125 14.5172 6.91641L11.4727 10.5469L14.5195 14.1797C14.5477 14.2148 14.5641 14.257 14.5641 14.3016C14.5641 14.4047 14.4797 14.4891 14.3766 14.4891Z" fill="currentColor"/></svg>
